<svg xmlns="http://www.w3.org/2000/svg" height="100%" width="100%" viewBox="140.3280029296875 338.7599792480469 743.343994140625 90.48004150390625">
  <g text-anchor="middle">
    <g style="line-height:1;font-variant-ligatures:none;text-align:center" font-weight="700" font-size="72" font-family="Meedori Sans">
      <path style="line-height:1;font-variant-ligatures:none;text-align:center" d="M193.608 339.24h15v89.88h-15V392.4h-53.28v-14.88h53.28v-38.28zM334.743 339.12v56.64q0 1.2-.24 4.2-.12 2.88-1.08 6.6-.96 3.72-3.12 7.8-2.04 3.96-6 7.32-3.84 3.24-9.84 5.4-5.88 2.04-14.64 2.04-8.28 0-14.04-2.04-5.76-2.16-9.48-5.4-3.72-3.36-5.76-7.32-1.92-4.08-2.88-7.8-.84-3.72-1.08-6.6-.12-3-.12-4.2v-56.64h15v56.64q0 1.32.24 4.56.36 3.24 2.04 6.72 1.68 3.36 5.4 6 3.84 2.64 10.68 2.64 7.44 0 11.4-2.64 4.08-2.64 5.88-6 1.92-3.48 2.16-6.72.36-3.24.36-4.56v-56.64z" fill="#231f20"></path>
      <path style="line-height:1;font-variant-ligatures:none;text-align:center" d="M483.1 338.76v90.48l-15-11.76v-46.92l-30.24 23.52-30.12-23.52v46.92l-15.12 11.76v-90.48l45.24 35.28z" fill="#36454f"></path>
      <path style="line-height:1;font-variant-ligatures:none;text-align:center" d="M578.46 339l45.12 90.12h-18.24l-26.88-56.64-26.76 56.64h-18.24l45-90.12zM735.54 350.64l15-11.76v90.24l-61.8-55.08v43.32l-15 11.76v-90.24l61.8 56.76v-45z" fill="#466677"></path>
      <path style="line-height:1;font-variant-ligatures:none;text-align:center" d="M838.792 339.12q9.36.24 17.52 3.96 8.16 3.6 14.28 9.72 6.12 6.12 9.6 14.28 3.48 8.04 3.48 17.04 0 9.36-3.72 17.64-3.72 8.16-9.96 14.28-6.24 6-14.4 9.48-8.04 3.48-16.8 3.6h-30V414h31.8q5.88.24 10.92-2.28 5.16-2.52 9-6.72 3.84-4.32 6-9.72 2.28-5.52 2.28-11.16 0-5.64-2.28-11.04-2.16-5.52-6-9.72-3.72-4.2-8.88-6.72-5.16-2.52-11.04-2.4h-31.8v-15.12h30z" fill="#598ca6"></path>
    </g>
  </g>
</svg>